<svg id="visual" viewBox="0 0 1920 1080" width="1920" height="1080" xmlns="http://www.w3.org/2000/svg" xmlns:xlink="http://www.w3.org/1999/xlink" version="1.1"><rect x="0" y="0" width="1920" height="1080" fill="#001220"></rect><path d="M0 700L40 716.8C80 733.7 160 767.3 240 755C320 742.7 400 684.3 480 681C560 677.7 640 729.3 720 745.5C800 761.7 880 742.3 960 744C1040 745.7 1120 768.3 1200 774.5C1280 780.7 1360 770.3 1440 747.8C1520 725.3 1600 690.7 1680 665.2C1760 639.7 1840 623.3 1880 615.2L1920 607L1920 1081L1880 1081C1840 1081 1760 1081 1680 1081C1600 1081 1520 1081 1440 1081C1360 1081 1280 1081 1200 1081C1120 1081 1040 1081 960 1081C880 1081 800 1081 720 1081C640 1081 560 1081 480 1081C400 1081 320 1081 240 1081C160 1081 80 1081 40 1081L0 1081Z" fill="#f37a3a"></path><path d="M0 676L40 667.3C80 658.7 160 641.3 240 661.7C320 682 400 740 480 766.3C560 792.7 640 787.3 720 759.8C800 732.3 880 682.7 960 689.2C1040 695.7 1120 758.3 1200 780.2C1280 802 1360 783 1440 778.2C1520 773.3 1600 782.7 1680 767C1760 751.3 1840 710.7 1880 690.3L1920 670L1920 1081L1880 1081C1840 1081 1760 1081 1680 1081C1600 1081 1520 1081 1440 1081C1360 1081 1280 1081 1200 1081C1120 1081 1040 1081 960 1081C880 1081 800 1081 720 1081C640 1081 560 1081 480 1081C400 1081 320 1081 240 1081C160 1081 80 1081 40 1081L0 1081Z" fill="#ee7136"></path><path d="M0 727L40 724.2C80 721.3 160 715.7 240 728.5C320 741.3 400 772.7 480 774.8C560 777 640 750 720 755.2C800 760.3 880 797.7 960 800.2C1040 802.7 1120 770.3 1200 756.5C1280 742.7 1360 747.3 1440 753.2C1520 759 1600 766 1680 786.5C1760 807 1840 841 1880 858L1920 875L1920 1081L1880 1081C1840 1081 1760 1081 1680 1081C1600 1081 1520 1081 1440 1081C1360 1081 1280 1081 1200 1081C1120 1081 1040 1081 960 1081C880 1081 800 1081 720 1081C640 1081 560 1081 480 1081C400 1081 320 1081 240 1081C160 1081 80 1081 40 1081L0 1081Z" fill="#e86831"></path><path d="M0 875L40 855.7C80 836.3 160 797.7 240 802.2C320 806.7 400 854.3 480 859.7C560 865 640 828 720 801C800 774 880 757 960 772.7C1040 788.3 1120 836.7 1200 835.2C1280 833.7 1360 782.3 1440 777.7C1520 773 1600 815 1680 814C1760 813 1840 769 1880 747L1920 725L1920 1081L1880 1081C1840 1081 1760 1081 1680 1081C1600 1081 1520 1081 1440 1081C1360 1081 1280 1081 1200 1081C1120 1081 1040 1081 960 1081C880 1081 800 1081 720 1081C640 1081 560 1081 480 1081C400 1081 320 1081 240 1081C160 1081 80 1081 40 1081L0 1081Z" fill="#e25e2d"></path><path d="M0 928L40 910.5C80 893 160 858 240 856.8C320 855.7 400 888.3 480 884.2C560 880 640 839 720 824.7C800 810.3 880 822.7 960 819.2C1040 815.7 1120 796.3 1200 797.8C1280 799.3 1360 821.7 1440 827.7C1520 833.7 1600 823.3 1680 828.8C1760 834.3 1840 855.7 1880 866.3L1920 877L1920 1081L1880 1081C1840 1081 1760 1081 1680 1081C1600 1081 1520 1081 1440 1081C1360 1081 1280 1081 1200 1081C1120 1081 1040 1081 960 1081C880 1081 800 1081 720 1081C640 1081 560 1081 480 1081C400 1081 320 1081 240 1081C160 1081 80 1081 40 1081L0 1081Z" fill="#dd552a"></path><path d="M0 861L40 869.3C80 877.7 160 894.3 240 885.5C320 876.7 400 842.3 480 850.2C560 858 640 908 720 925.2C800 942.3 880 926.7 960 916.8C1040 907 1120 903 1200 886C1280 869 1360 839 1440 825.3C1520 811.7 1600 814.3 1680 823.5C1760 832.7 1840 848.3 1880 856.2L1920 864L1920 1081L1880 1081C1840 1081 1760 1081 1680 1081C1600 1081 1520 1081 1440 1081C1360 1081 1280 1081 1200 1081C1120 1081 1040 1081 960 1081C880 1081 800 1081 720 1081C640 1081 560 1081 480 1081C400 1081 320 1081 240 1081C160 1081 80 1081 40 1081L0 1081Z" fill="#d74b26"></path><path d="M0 891L40 890.8C80 890.7 160 890.3 240 893.5C320 896.7 400 903.3 480 897.2C560 891 640 872 720 869.7C800 867.3 880 881.7 960 899.5C1040 917.3 1120 938.7 1200 942C1280 945.3 1360 930.7 1440 935C1520 939.3 1600 962.7 1680 973C1760 983.3 1840 980.7 1880 979.3L1920 978L1920 1081L1880 1081C1840 1081 1760 1081 1680 1081C1600 1081 1520 1081 1440 1081C1360 1081 1280 1081 1200 1081C1120 1081 1040 1081 960 1081C880 1081 800 1081 720 1081C640 1081 560 1081 480 1081C400 1081 320 1081 240 1081C160 1081 80 1081 40 1081L0 1081Z" fill="#d14123"></path><path d="M0 928L40 929.2C80 930.3 160 932.7 240 946.3C320 960 400 985 480 996.2C560 1007.3 640 1004.7 720 1000.3C800 996 880 990 960 990.5C1040 991 1120 998 1200 986.2C1280 974.3 1360 943.7 1440 936.7C1520 929.7 1600 946.3 1680 962.8C1760 979.3 1840 995.7 1880 1003.8L1920 1012L1920 1081L1880 1081C1840 1081 1760 1081 1680 1081C1600 1081 1520 1081 1440 1081C1360 1081 1280 1081 1200 1081C1120 1081 1040 1081 960 1081C880 1081 800 1081 720 1081C640 1081 560 1081 480 1081C400 1081 320 1081 240 1081C160 1081 80 1081 40 1081L0 1081Z" fill="#cb3620"></path><path d="M0 950L40 961.7C80 973.3 160 996.7 240 998.5C320 1000.3 400 980.7 480 974.5C560 968.3 640 975.7 720 983.8C800 992 880 1001 960 995.3C1040 989.7 1120 969.3 1200 972.5C1280 975.7 1360 1002.3 1440 1007.2C1520 1012 1600 995 1680 996.8C1760 998.7 1840 1019.3 1880 1029.7L1920 1040L1920 1081L1880 1081C1840 1081 1760 1081 1680 1081C1600 1081 1520 1081 1440 1081C1360 1081 1280 1081 1200 1081C1120 1081 1040 1081 960 1081C880 1081 800 1081 720 1081C640 1081 560 1081 480 1081C400 1081 320 1081 240 1081C160 1081 80 1081 40 1081L0 1081Z" fill="#c5291d"></path><path d="M0 1047L40 1049.3C80 1051.7 160 1056.3 240 1055.7C320 1055 400 1049 480 1037.3C560 1025.7 640 1008.3 720 1008.7C800 1009 880 1027 960 1027.7C1040 1028.3 1120 1011.7 1200 1013.3C1280 1015 1360 1035 1440 1036C1520 1037 1600 1019 1680 1011.8C1760 1004.7 1840 1008.3 1880 1010.2L1920 1012L1920 1081L1880 1081C1840 1081 1760 1081 1680 1081C1600 1081 1520 1081 1440 1081C1360 1081 1280 1081 1200 1081C1120 1081 1040 1081 960 1081C880 1081 800 1081 720 1081C640 1081 560 1081 480 1081C400 1081 320 1081 240 1081C160 1081 80 1081 40 1081L0 1081Z" fill="#bf1a1a"></path></svg>